<?xml version="1.0" standalone="no"?>
<!DOCTYPE svg PUBLIC "-//W3C//DTD SVG 20010904//EN"
 "http://www.w3.org/TR/2001/REC-SVG-20010904/DTD/svg10.dtd">
<svg version="1.0" xmlns="http://www.w3.org/2000/svg"
 width="700.000000pt" height="700.000000pt" viewBox="0 0 700.000000 700.000000"
 preserveAspectRatio="xMidYMid meet">
<metadata>
Created by potrace 1.11, written by Peter Selinger 2001-2013
</metadata>
<g transform="translate(0.000000,700.000000) scale(0.100000,-0.100000)"
fill="#000000" stroke="none">
<path d="M1844 6119 c-37 -10 -72 -46 -78 -79 -2 -14 -5 -169 -6 -345 l-1
-320 -42 -30 c-23 -17 -55 -52 -72 -79 -25 -42 -30 -59 -30 -115 0 -85 7 -112
41 -159 88 -122 247 -148 368 -61 129 93 144 279 32 391 -20 20 -46 40 -56 43
-19 6 -20 18 -21 333 -1 318 -3 348 -24 384 -16 27 -75 47 -111 37z"/>
<path d="M3474 6115 c-16 -7 -38 -22 -49 -35 -19 -21 -20 -38 -23 -363 -3
-339 -3 -341 -25 -356 -35 -23 -86 -80 -104 -114 -27 -52 -26 -154 1 -213 43
-92 115 -142 216 -151 226 -21 365 237 226 420 -14 19 -42 42 -61 53 l-35 19
0 328 c0 392 1 389 -91 417 -15 5 -37 3 -55 -5z"/>
<path d="M5121 6116 c-19 -6 -44 -24 -55 -39 -20 -27 -21 -41 -23 -364 l-2
-335 -23 -16 c-35 -24 -86 -80 -106 -115 -25 -48 -23 -170 5 -222 25 -47 74
-96 123 -121 48 -25 171 -26 220 -1 131 66 187 215 130 344 -21 49 -77 107
-111 118 -18 6 -19 20 -19 343 0 299 -2 340 -17 362 -9 14 -17 26 -18 27 0 1
-17 9 -36 17 -27 11 -41 12 -68 2z"/>
<path d="M890 5739 c-83 -9 -142 -25 -205 -56 -130 -65 -233 -187 -278 -328
l-22 -70 0 -1890 c0 -1589 2 -1898 14 -1940 60 -213 223 -366 435 -406 67 -12
5265 -12 5332 0 218 42 393 210 437 423 12 54 14 389 12 1944 -1 1750 -3 1883
-19 1932 -65 199 -228 347 -421 383 -56 11 -799 18 -809 8 -5 -5 -8 -80 -7
-160 l1 -55 383 -1 382 0 62 -25 c76 -31 112 -59 152 -121 55 -82 58 -102 57
-457 l-1 -325 -2895 0 -2895 0 -2 310 c-2 335 4 389 50 462 37 58 98 108 163
133 57 22 71 22 442 23 l383 1 -3 109 -3 110 -340 1 c-187 1 -369 -2 -405 -5z
m5496 -1368 c9 -1 12 -373 12 -1413 0 -1546 3 -1465 -59 -1554 -49 -72 -129
-125 -209 -139 -19 -4 -1206 -7 -2637 -7 -1923 1 -2612 4 -2645 12 -118 31
-210 127 -236 247 -9 37 -15 2840 -7 2853 3 4 5743 5 5781 1z"/>
<path d="M2037 3876 c-71 -35 -109 -124 -88 -203 35 -130 197 -177 295 -85
101 94 59 266 -74 302 -49 13 -86 9 -133 -14z"/>
<path d="M2727 3886 c-50 -18 -76 -42 -98 -91 -37 -81 -17 -162 53 -218 68
-55 181 -45 240 20 25 27 48 87 48 123 0 72 -59 151 -127 169 -49 14 -69 13
-116 -3z"/>
<path d="M5397 3886 c-186 -69 -137 -347 61 -346 130 1 218 142 161 258 -39
79 -140 118 -222 88z"/>
<path d="M3394 3872 c-11 -4 -34 -18 -51 -32 -121 -98 -60 -301 94 -314 152
-13 251 150 168 276 -42 64 -134 94 -211 70z"/>
<path d="M4038 3860 c-87 -46 -117 -151 -69 -243 68 -131 268 -120 319 18 59
158 -102 303 -250 225z"/>
<path d="M4702 3859 c-57 -29 -95 -92 -95 -159 0 -58 23 -101 76 -144 34 -27
45 -30 103 -30 56 1 69 5 102 31 20 17 45 44 56 62 23 41 24 116 1 165 -39 83
-157 119 -243 75z"/>
<path d="M1374 3270 c-47 -23 -78 -61 -92 -112 -20 -71 3 -136 65 -187 112
-93 284 -9 286 139 2 132 -139 219 -259 160z"/>
<path d="M2038 3270 c-156 -83 -107 -323 70 -335 108 -8 192 71 192 181 0 129
-146 215 -262 154z"/>
<path d="M2710 3272 c-88 -49 -122 -145 -82 -235 62 -141 267 -136 328 8 30
72 5 161 -60 210 -48 37 -136 45 -186 17z"/>
<path d="M3385 3276 c-116 -52 -144 -207 -52 -293 136 -128 350 9 290 186 -33
98 -145 148 -238 107z"/>
<path d="M4029 3262 c-131 -84 -100 -283 51 -323 150 -39 275 125 199 260 -30
54 -80 84 -147 89 -50 3 -63 0 -103 -26z"/>
<path d="M4702 3269 c-153 -76 -109 -314 62 -334 124 -15 227 103 194 222 -31
112 -150 164 -256 112z"/>
<path d="M5395 3283 c-30 -8 -85 -53 -101 -84 -19 -37 -24 -103 -11 -146 29
-95 146 -146 240 -105 110 49 142 190 64 279 -48 55 -116 75 -192 56z"/>
<path d="M1385 2685 c-132 -61 -147 -235 -27 -315 56 -37 143 -35 199 5 78 56
98 155 49 240 -43 73 -145 106 -221 70z"/>
<path d="M2043 2660 c-172 -88 -107 -340 88 -340 90 0 169 86 169 184 0 126
-143 213 -257 156z"/>
<path d="M2714 2661 c-61 -28 -95 -78 -101 -148 -5 -68 14 -111 70 -156 85
-69 222 -35 268 67 24 54 24 100 -2 154 -42 85 -149 123 -235 83z"/>
<path d="M3385 2663 c-98 -50 -133 -150 -86 -245 59 -120 231 -129 306 -17 76
115 0 268 -137 275 -33 1 -64 -4 -83 -13z"/>
<path d="M4055 2665 c-140 -61 -146 -259 -11 -325 72 -34 144 -24 199 28 84
79 77 202 -14 274 -42 34 -125 45 -174 23z"/>
<path d="M4703 2658 c-154 -83 -112 -316 61 -335 109 -13 198 67 198 178 0
131 -144 218 -259 157z"/>
<path d="M5391 2667 c-44 -17 -99 -80 -107 -124 -10 -54 2 -111 31 -149 39
-51 70 -67 133 -70 71 -3 122 22 159 78 54 81 26 202 -57 251 -39 23 -116 30
-159 14z"/>
<path d="M1420 2100 c-67 -12 -111 -50 -133 -115 -22 -63 -13 -116 30 -172 91
-122 293 -66 316 88 6 37 -12 101 -38 135 -38 50 -111 77 -175 64z"/>
<path d="M2054 2090 c-141 -60 -147 -255 -10 -327 57 -30 157 -14 202 32 71
71 71 189 0 260 -45 45 -130 61 -192 35z"/>
<path d="M2737 2096 c-144 -44 -171 -246 -43 -321 81 -48 156 -38 223 29 32
33 43 52 48 90 20 134 -100 241 -228 202z"/>
<path d="M3406 2098 c-54 -15 -112 -75 -123 -130 -25 -120 59 -223 179 -220
155 3 230 184 124 300 -43 48 -113 67 -180 50z"/>
<path d="M2123 5742 l-33 -3 0 -108 0 -107 600 0 600 0 1 65 c1 80 -2 145 -6
150 -5 4 -1117 7 -1162 3z"/>
<path d="M3747 5742 c-15 -3 -17 -18 -17 -111 l0 -107 600 0 600 -1 1 36 c2
136 1 172 -4 177 -6 7 -1148 12 -1180 6z"/>
</g>
</svg>
